<?xml version="1.0" standalone="no"?><!DOCTYPE svg PUBLIC "-//W3C//DTD SVG 1.1//EN" "http://www.w3.org/Graphics/SVG/1.1/DTD/svg11.dtd"><svg t="1574501808234" class="icon" viewBox="0 0 1024 1024" version="1.1" xmlns="http://www.w3.org/2000/svg" p-id="1805" xmlns:xlink="http://www.w3.org/1999/xlink" width="64" height="64"><defs><style type="text/css"></style></defs><path d="M800.3584 924.8768H223.6416c-25.1904 0-46.6944-15.9744-55.0912-38.1952-63.7952 6.8608-102.1952 15.5648-102.1952 25.088 0 21.7088 198.0416 39.3216 442.368 39.3216s442.368-17.6128 442.368-39.3216c0-9.216-35.9424-17.7152-95.8464-24.4736-8.6016 22.016-29.9008 37.5808-54.8864 37.5808z" fill="#E6ECF0" p-id="1806"></path><path d="M951.1936 598.2208c12.9024-9.5232 12.9024-29.696 12.9024-46.8992 0-23.3472 0-52.4288-32.4608-52.4288-1.536 0-3.072 0.1024-4.5056 0.2048l-38.4-157.9008 16.4864-52.1216c0-14.4384-11.776-26.2144-26.2144-26.2144h-19.6608v-55.1936L724.48 72.9088H223.6416c-32.5632 0-58.9824 26.4192-58.9824 58.9824v131.072h-19.6608c-14.4384 0-26.2144 11.776-26.2144 26.2144l16.384 52.4288-38.5024 158.4128c-1.3312-0.1024-2.6624-0.2048-3.9936-0.2048h-0.1024c-31.8464 0-31.8464 28.5696-31.8464 51.5072 0 16.6912 0.1024 36.2496 12.288 45.7728L20.48 813.4656c0 14.4384 11.776 26.2144 26.2144 26.2144h117.9648v26.2144c0 7.2704 1.4336 14.2336 3.8912 20.7872 8.3968 22.3232 29.9008 38.1952 55.0912 38.1952h576.7168c24.9856 0 46.2848-15.5648 54.8864-37.5808 2.56-6.656 4.096-13.9264 4.096-21.4016V839.68h117.9648c14.4384 0 26.2144-11.776 26.2144-26.2144l-52.3264-215.2448zM119.808 578.4576c-7.2704 7.2704-16.896 11.264-27.2384 11.264-15.2576 0-18.3296-7.5776-18.7392-33.1776v-5.2224c0-29.696 2.4576-38.4 18.7392-38.4h1.024c20.6848 0.512 37.4784 17.408 37.4784 38.2976-0.1024 10.3424-3.9936 19.968-11.264 27.2384z m680.5504 333.312H223.6416c-18.3296 0-34.2016-10.8544-41.5744-26.5216-2.7648-5.9392-4.3008-12.3904-4.3008-19.3536V131.8912c0-25.2928 20.5824-45.8752 45.8752-45.8752h495.4112l2.6624 2.6624v-9.216l131.072 131.072h-9.216l2.6624 2.6624V865.8944c0 7.168-1.7408 13.9264-4.608 19.968-7.4752 15.36-23.1424 25.9072-41.2672 25.9072z m150.6304-355.1232v0.6144c0 1.536 0 2.9696-0.1024 4.4032v0.2048c0 1.536-0.1024 2.9696-0.2048 4.3008v0.1024c-1.024 17.3056-4.9152 24.2688-19.0464 24.2688-21.7088 0-39.3216-17.6128-39.3216-39.3216 0-21.1968 16.896-38.5024 37.888-39.2192 0.512 0 0.9216-0.1024 1.4336-0.1024 17.7152 0 19.3536 10.752 19.3536 39.3216v5.4272z" fill="#CEDAE0" p-id="1807"></path><path d="M787.2512 210.5344c-36.1472 0-65.536-29.3888-65.536-65.536v-56.32l-2.6624-2.6624H223.6416c-25.2928 0-45.8752 20.5824-45.8752 45.8752V865.8944c0 6.9632 1.536 13.5168 4.3008 19.3536 7.2704 15.6672 23.1424 26.5216 41.5744 26.5216h576.7168c18.1248 0 33.792-10.5472 41.2672-25.9072 2.9696-6.0416 4.608-12.8 4.608-19.968V213.1968l-2.6624-2.6624h-56.32zM93.4912 513.024h-0.9216-0.1024c-16.2816 0-18.7392 8.6016-18.7392 38.4v5.2224c0 2.7648 0.1024 5.3248 0.2048 7.68v0.4096c0.1024 2.3552 0.3072 4.4032 0.512 6.3488v0.4096c0.2048 1.9456 0.512 3.6864 0.8192 5.2224 0 0.1024 0 0.2048 0.1024 0.3072 0.4096 1.536 0.8192 2.9696 1.3312 4.3008 2.6624 6.2464 7.2704 8.4992 15.6672 8.4992 10.3424 0 19.968-3.9936 27.2384-11.264 7.2704-7.2704 11.264-16.896 11.1616-27.136 0.2048-20.992-16.4864-37.9904-37.2736-38.4zM931.6352 512c-0.512 0-0.9216 0.1024-1.4336 0.1024-20.992 0.7168-37.888 18.0224-37.888 39.2192 0 21.7088 17.6128 39.3216 39.3216 39.3216 8.2944 0 13.0048-2.4576 15.7696-7.9872v0.1024c0.1024-0.1024 0.1024-0.3072 0.2048-0.512 0.3072-0.512 0.512-1.2288 0.7168-1.8432 0.2048-0.6144 0.4096-1.2288 0.6144-1.9456 0.2048-0.6144 0.3072-1.3312 0.512-2.048 0.2048-0.8192 0.3072-1.7408 0.4096-2.6624 0.1024-0.7168 0.2048-1.3312 0.3072-2.048 0.2048-1.6384 0.3072-3.4816 0.512-5.4272v-0.1024c0.1024-1.3312 0.1024-2.7648 0.2048-4.3008v-0.2048c0-1.4336 0.1024-2.8672 0.1024-4.4032v-0.6144-5.3248c0-28.4672-1.6384-39.3216-19.3536-39.3216z" fill="#FFFFFF" p-id="1808"></path><path d="M852.7872 210.5344l-131.072-131.072v9.216l121.856 121.856z" fill="#CEDAE0" p-id="1809"></path><path d="M721.7152 88.6784v56.32c0 36.1472 29.3888 65.536 65.536 65.536h56.32l-121.856-121.856zM390.0416 335.0528c-17.1008 0-31.0272 13.824-31.0272 30.9248 0 16.9984 13.824 30.8224 30.8224 30.9248 17.1008 0.1024 30.9248-13.7216 31.0272-30.8224 0.1024-17.1008-13.7216-30.9248-30.8224-31.0272zM633.9584 335.0528c-17.1008 0-31.0272 13.824-31.0272 30.9248 0 16.9984 13.824 30.8224 30.8224 30.9248 17.1008 0.1024 30.9248-13.7216 31.0272-30.8224 0.1024-17.1008-13.7216-30.9248-30.8224-31.0272zM588.1856 480.8704h-147.456c-1.7408 0-3.4816 0.7168-4.7104 1.9456-1.2288 1.2288-1.9456 2.9696-1.8432 4.8128 1.3312 42.1888 35.4304 76.288 77.6192 77.6192h2.6624c43.1104 0 78.7456-34.304 80.1792-77.6192 0.1024-1.7408-0.6144-3.4816-1.8432-4.8128-1.1264-1.2288-2.8672-1.9456-4.608-1.9456z m-75.8784 71.2704c-17.3056-0.512-32.8704-7.68-44.4416-18.944 7.9872-10.3424 24.7808-17.5104 44.2368-17.5104 21.1968 0 39.2192 8.4992 46.08 20.2752-12.3904 10.6496-28.4672 16.7936-45.8752 16.1792z" fill="#CEDAE0" p-id="1810"></path><path d="M276.0704 427.8272a31.0272 20.6848 0 1 0 62.0544 0 31.0272 20.6848 0 1 0-62.0544 0Z" fill="#EBF2F5" p-id="1811"></path><path d="M685.8752 427.8272a31.0272 20.6848 0 1 0 62.0544 0 31.0272 20.6848 0 1 0-62.0544 0Z" fill="#EBF2F5" p-id="1812"></path><path d="M512 515.6864c-19.456 0-36.2496 7.168-44.2368 17.5104 11.5712 11.264 27.2384 18.432 44.4416 18.944 17.408 0.6144 33.5872-5.632 45.8752-16.1792-6.8608-11.776-24.8832-20.2752-46.08-20.2752z" fill="#EBF2F5" p-id="1813"></path></svg>